<?xml version="1.0" encoding="utf-8"?>
<!-- Generator: Adobe Illustrator 19.0.0, SVG Export Plug-In . SVG Version: 6.00 Build 0)  -->
<svg version="1.1" id="Militaty_Medal" xmlns="http://www.w3.org/2000/svg" xmlns:xlink="http://www.w3.org/1999/xlink" x="0px"
	 y="0px" viewBox="51 71.6 698.3 698.3" style="enable-background:new 51 71.6 698.3 698.3;" xml:space="preserve">
<style type="text/css">
	.st0{fill:#222528;stroke:#FFFFFF;stroke-miterlimit:10;}
	.st1{fill:#FFFFFF;}
</style>
<g>
	<path class="st0" d="M400.1,769.9L400.1,769.9C207.3,769.9,51,613.5,51,420.7l0,0C51,227.9,207.3,71.6,400.1,71.6l0,0
		c192.8,0,349.1,156.3,349.1,349.1l0,0C749.3,613.5,592.9,769.9,400.1,769.9z"/>
	<g>
		<path class="st1" d="M414.5,419.7l57.7-40.6V251.3H328.1v127.8l57.7,40.6c-40.5,6.9-71.4,42.2-71.4,84.6
			c0,47.3,38.5,85.8,85.8,85.8s85.8-38.5,85.8-85.8C485.9,461.9,455,426.6,414.5,419.7z M400.1,415.6l-39.7-28V263h79.5v124.6
			L400.1,415.6z M460.5,373.1l-9,6.3V263h9V373.1z M339.7,263h9v116.4l-9-6.3V263z M400.1,578.5c-40.9,0-74.2-33.3-74.2-74.2
			s33.3-74.2,74.2-74.2s74.2,33.3,74.2,74.2S441,578.5,400.1,578.5z"/>
		<path class="st1" d="M400.1,441.5c-34.6,0-62.8,28.2-62.8,62.8s28.2,62.8,62.8,62.8s62.8-28.2,62.8-62.8S434.8,441.5,400.1,441.5z
			 M400.1,555.4c-28.2,0-51.1-22.9-51.1-51.1c0-28.2,22.9-51.1,51.1-51.1s51.1,22.9,51.1,51.1C451.3,532.5,428.3,555.4,400.1,555.4z
			"/>
	</g>
</g>
</svg>
