<?xml version="1.0" encoding="utf-8"?>
<!-- Generator: Adobe Illustrator 19.0.0, SVG Export Plug-In . SVG Version: 6.00 Build 0)  -->
<svg version="1.1" id="Militaty_Medal" xmlns="http://www.w3.org/2000/svg" xmlns:xlink="http://www.w3.org/1999/xlink" x="0px"
	 y="0px" viewBox="0 0 698.3 698.3" style="enable-background:new 0 0 698.3 698.3;" xml:space="preserve">
<style type="text/css">
	.st0{stroke:#FFFFFF;stroke-miterlimit:10;}
	.st1{fill:#FFFFFF;}
</style>
<g>
	<path class="st0" d="M349.1,698.3L349.1,698.3C156.3,698.3,0,541.9,0,349.1v0C0,156.3,156.3,0,349.1,0h0
		c192.8,0,349.1,156.3,349.1,349.1v0C698.3,541.9,541.9,698.3,349.1,698.3z"/>
	<g>
		<path class="st1" d="M363.5,348.1l57.7-40.6V179.7H277.1v127.8l57.7,40.6c-40.5,6.9-71.4,42.2-71.4,84.6
			c0,47.3,38.5,85.8,85.8,85.8s85.8-38.5,85.8-85.8C434.9,390.3,404,355,363.5,348.1z M349.1,344l-39.7-28V191.4h79.5V316L349.1,344
			z M409.5,301.5l-9,6.3V191.4h9V301.5z M288.7,191.4h9v116.4l-9-6.3V191.4z M349.1,506.9c-40.9,0-74.2-33.3-74.2-74.2
			s33.3-74.2,74.2-74.2s74.2,33.3,74.2,74.2S390,506.9,349.1,506.9z"/>
		<path class="st1" d="M349.1,369.9c-34.6,0-62.8,28.2-62.8,62.8s28.2,62.8,62.8,62.8s62.8-28.2,62.8-62.8S383.8,369.9,349.1,369.9z
			 M349.1,483.8c-28.2,0-51.1-22.9-51.1-51.1c0-28.2,22.9-51.1,51.1-51.1c28.2,0,51.1,22.9,51.1,51.1
			C400.3,460.9,377.3,483.8,349.1,483.8z"/>
	</g>
</g>
</svg>
