<?xml version="1.0" encoding="utf-8"?>
<!-- Generator: Adobe Illustrator 19.0.0, SVG Export Plug-In . SVG Version: 6.00 Build 0)  -->
<svg version="1.1" id="Handshake" xmlns="http://www.w3.org/2000/svg" xmlns:xlink="http://www.w3.org/1999/xlink" x="0px" y="0px"
	 viewBox="0 0 698.3 698.3" style="enable-background:new 0 0 698.3 698.3;" xml:space="preserve">
<style type="text/css">
	.st0{stroke:#FFFFFF;stroke-miterlimit:10;}
	.st1{fill:#FFFFFF;}
</style>
<g>
	<path class="st0" d="M349.1,698.3L349.1,698.3C156.3,698.3,0,541.9,0,349.1v0C0,156.3,156.3,0,349.1,0h0
		c192.8,0,349.1,156.3,349.1,349.1v0C698.3,541.9,541.9,698.3,349.1,698.3z"/>
	<g>
		<g id="Layer_1_2_">
			<g>
				<g>
					<path class="st1" d="M406.2,257.7c-0.8-0.8-1.7-1.3-2.8-1.7l-62.2-19.5c-24.9-7.8-41.1,5.8-45.4,10.2c-2.5,2.5-4.5,5.2-5.5,7.6
						l-27.7,65.2c-1.6,3.7-1,8.7,1.4,13.7c3.6,7.1,10,12.2,17.7,14c8.6,2.1,17.5-0.7,24.5-7.7c1.8-1.8,3.4-3.8,4.3-5.5l9.3-17.3
						c1.5-2.9,3.8-5.8,6.1-8.2c8-8,11.8-4.3,13.4-2.8c13.9,13.5,87,86.8,87,86.8c2.6,2.6,2.1,7.5-1.2,10.8
						c-3.2,3.2-8.2,3.8-10.8,1.2l-20.5-20.5c-2.6-2.7-6.9-2.7-9.6,0c-2.6,2.6-2.6,6.9,0,9.6l20.5,20.5c2.6,2.6,2.1,7.5-1.2,10.8
						c-3.2,3.3-8.2,3.8-10.8,1.2l-20.5-20.5c-2.6-2.6-6.9-2.6-9.6,0c-2.6,2.6-2.6,6.9,0,9.6l20.5,20.5c2.6,2.6,2,7.5-1.2,10.8
						c-3.2,3.2-8.2,3.8-10.8,1.2L350.8,427c-2.6-2.6-6.9-2.6-9.6,0c-2.6,2.6-2.6,6.9,0,9.6l20.5,20.5c2.6,2.6,2,7.5-1.2,10.8
						c-3.3,3.2-8.2,3.8-10.8,1.2l-25-25c3.6-5.4,2.6-13.1-2.7-18.5c-5.9-5.9-15.1-6.5-20.3-1.2c5.3-5.3,4.8-14.4-1.2-20.3
						c-5.9-5.9-15.1-6.5-20.3-1.2c5.3-5.3,4.7-14.4-1.2-20.3c-5.9-5.9-15-6.5-20.3-1.2c5.3-5.3,4.7-14.4-1.2-20.3
						c-5.6-5.6-13.8-6.3-19.2-2.1l-40.5-40.5c-2.6-2.6-6.9-2.6-9.6,0c-2.6,2.6-2.6,6.9,0,9.6l40.4,40.4l-12,12
						c-5.3,5.3-4.7,14.4,1.2,20.3c5.9,5.9,15,6.5,20.3,1.2c-5.3,5.3-4.7,14.4,1.2,20.3c5.9,5.9,15,6.5,20.3,1.2
						c-5.3,5.3-4.8,14.4,1.2,20.3c5.9,5.9,15.1,6.5,20.3,1.2c-5.3,5.3-4.7,14.4,1.2,20.3c5.9,5.9,15,6.5,20.3,1.2l12.6-12.6
						l24.8,24.8c7.9,7.9,21.3,7.4,29.9-1.2c4.2-4.2,6.4-9.5,6.7-14.8c5.3-0.3,10.6-2.6,14.8-6.7c4.2-4.2,6.4-9.5,6.8-14.8
						c5.3-0.3,10.6-2.5,14.8-6.7c4.2-4.2,6.4-9.5,6.7-14.8c5.3-0.3,10.6-2.5,14.8-6.7c8.6-8.6,9.1-22,1.2-29.9l-10.5-10.5l43-43
						c2.6-2.6,2.6-6.9,0-9.6L406.2,257.7z"/>
				</g>
				<g>
					<path class="st1" d="M508.1,272.8L453.3,218c-5.3-5.3-13.9-5.3-19.1,0L415,237.2c-5.3,5.3-5.3,13.9,0,19.1l54.8,54.8
						c5.3,5.3,13.9,5.3,19.1,0l19.1-19.1C513.3,286.6,513.3,278.1,508.1,272.8z M479.3,300.7c-6.1,0-11.1-5-11.1-11.1
						c0-6.1,5-11.1,11.1-11.1c6.1,0,11.1,5,11.1,11.1C490.4,295.7,485.5,300.7,479.3,300.7z"/>
				</g>
			</g>
		</g>
	</g>
</g>
</svg>
