<?xml version="1.0" encoding="utf-8"?>
<!-- Generator: Adobe Illustrator 19.0.0, SVG Export Plug-In . SVG Version: 6.00 Build 0)  -->
<svg version="1.1" id="Businessmen_circles" xmlns="http://www.w3.org/2000/svg" xmlns:xlink="http://www.w3.org/1999/xlink"
	 x="0px" y="0px" viewBox="0 0 698.3 698.3" style="enable-background:new 0 0 698.3 698.3;" xml:space="preserve">
<style type="text/css">
	.st0{stroke:#FFFFFF;stroke-miterlimit:10;}
	.st1{fill:#FFFFFF;}
</style>
<g>
	<path class="st0" d="M349.1,698.3L349.1,698.3C156.3,698.3,0,541.9,0,349.1v0C0,156.3,156.3,0,349.1,0h0
		c192.8,0,349.1,156.3,349.1,349.1v0C698.3,541.9,541.9,698.3,349.1,698.3z"/>
	<g>
		<path class="st1" d="M266.2,348.4c-49.4,0-89.6,38.9-89.6,86.6c0,1.1,0.1,2.2,0.1,3.3l0.1,1.2c2.4,46.1,41.7,82.2,89.4,82.2
			c47.7,0,86.9-36.1,89.3-82.1l0.1-1.2c0.1-1.1,0.2-2.2,0.2-3.3C355.7,387.3,315.6,348.4,266.2,348.4z M274.4,498.6
			c1.2-0.1,2.5-0.4,3.7-0.6C276.8,498.3,275.6,498.5,274.4,498.6z M332.4,437.9l-0.1,1c-1.1,17.9-9.9,34.4-24.2,45.7
			c0.8-0.6,1.5-1.3,2.2-1.9c-1.1-1-2.1-2.1-3.3-3c-5.3-4.1-10.9-7.6-17.3-9.9c-6-2.1-12.2-3.2-18.5-3.6l3.1,32.4
			c-2.7,0.3-5.4,0.6-8.2,0.6c-4.1,0-8.1-0.5-12.1-1.2c1.8,0.3,3.5,0.5,5.3,0.7l3.9-32.6c-6.8,0.2-13.7,1.3-20.2,3.6
			c-2.6,0.9-5.2,2.1-7.6,3.5c-4.3,2.5-8.2,5.5-11.9,8.7c-0.4,0.4-0.7,0.8-1.1,1.2c-13.3-11.3-21.4-27-22.5-44.2l-0.1-1
			c-0.1-1-0.1-1.9-0.1-2.9c0-35.4,29.8-64.2,66.4-64.2c36.6,0,66.3,28.8,66.3,64.2C332.5,436,332.4,437,332.4,437.9z M303.4,426
			c0,20.2-16.4,36.5-36.6,36.5s-36.6-16.3-36.6-36.5c0-20.2,16.4-36.5,36.6-36.5C287,389.4,303.4,405.8,303.4,426z M432.1,176.6
			c-49.4,0-89.6,38.9-89.6,86.6c0,1.1,0.1,2.2,0.1,3.3l0.1,1.2c2.4,46.1,41.7,82.2,89.4,82.2c47.7,0,86.9-36.1,89.3-82.1l0.1-1.2
			c0.1-1.1,0.1-2.2,0.1-3.3C521.7,215.4,481.5,176.6,432.1,176.6z M440.3,326.8c1.2-0.1,2.5-0.4,3.7-0.6
			C442.8,326.4,441.6,326.6,440.3,326.8z M498.3,266.1l-0.1,1c-1.1,17.9-9.9,34.4-24.2,45.7c0.8-0.6,1.5-1.3,2.2-1.9
			c-1.1-1-2.1-2.1-3.3-3c-5.3-4.1-10.9-7.6-17.3-9.9c-6-2.1-12.2-3.2-18.5-3.6l3.1,32.4c-2.7,0.3-5.4,0.6-8.2,0.6
			c-4.1,0-8.1-0.5-12.1-1.2c1.8,0.3,3.5,0.5,5.3,0.7l3.9-32.6c-6.8,0.2-13.7,1.3-20.2,3.6c-2.6,0.9-5.2,2.1-7.6,3.5
			c-4.3,2.5-8.2,5.5-11.9,8.7c-0.4,0.4-0.7,0.8-1.1,1.2c-13.3-11.3-21.4-27-22.5-44.2l-0.1-1c-0.1-1-0.1-1.9-0.1-2.9
			c0-35.4,29.8-64.1,66.4-64.1c36.6,0,66.3,28.8,66.3,64.1C498.4,264.2,498.4,265.1,498.3,266.1z M469.3,254.1
			c0,20.2-16.4,36.5-36.6,36.5c-20.2,0-36.6-16.3-36.6-36.5c0-20.2,16.4-36.5,36.6-36.5C452.9,217.6,469.3,233.9,469.3,254.1z
			 M423.5,440.4c-3.8-4.1-10.3-4.5-14.6-0.9L373.3,470l35.2,34c2,2,4.6,2.9,7.3,2.9c2.6,0,5.3-1,7.3-2.9c4-3.9,4-10.2,0-14.1
			l-8.2-7.9h80.2V380.4c0-5.5-4.6-10-10.3-10c-5.7,0-10.3,4.5-10.3,10V462h-60.6l8.8-7.5C426.9,450.8,427.3,444.5,423.5,440.4z
			 M276.4,251.7c2.1,2.2,4.9,3.4,7.7,3.4c2.4,0,4.9-0.8,6.9-2.5l35.6-30.5l-35.2-34c-4-3.9-10.6-3.9-14.6,0c-4,3.9-4,10.2,0,14.1
			l8.2,7.9h-80.2v101.5c0,5.5,4.6,10,10.3,10c5.7,0,10.3-4.5,10.3-10v-81.6H286l-8.8,7.5C273,241.3,272.6,247.6,276.4,251.7z"/>
	</g>
</g>
</svg>
