<?xml version="1.0" encoding="utf-8"?>
<!-- Generator: Adobe Illustrator 19.0.0, SVG Export Plug-In . SVG Version: 6.00 Build 0)  -->
<svg version="1.1" id="Businessmen_circles" xmlns="http://www.w3.org/2000/svg" xmlns:xlink="http://www.w3.org/1999/xlink"
	 x="0px" y="0px" viewBox="51 71.6 698.3 698.3" style="enable-background:new 51 71.6 698.3 698.3;" xml:space="preserve">
<style type="text/css">
	.st0{fill:#222528;stroke:#FFFFFF;stroke-miterlimit:10;}
	.st1{fill:#FFFFFF;}
</style>
<g>
	<path class="st0" d="M400.1,769.9L400.1,769.9C207.3,769.9,51,613.5,51,420.7l0,0C51,227.9,207.3,71.6,400.1,71.6l0,0
		c192.8,0,349.1,156.3,349.1,349.1l0,0C749.3,613.5,592.9,769.9,400.1,769.9z"/>
	<g>
		<path class="st1" d="M317.2,420c-49.4,0-89.6,38.9-89.6,86.6c0,1.1,0.1,2.2,0.1,3.3l0.1,1.2c2.4,46.1,41.7,82.2,89.4,82.2
			s86.9-36.1,89.3-82.1l0.1-1.2c0.1-1.1,0.2-2.2,0.2-3.3C406.7,458.9,366.6,420,317.2,420z M325.4,570.2c1.2-0.1,2.5-0.4,3.7-0.6
			C327.8,569.9,326.6,570.1,325.4,570.2z M383.4,509.5l-0.1,1c-1.1,17.9-9.9,34.4-24.2,45.7c0.8-0.6,1.5-1.3,2.2-1.9
			c-1.1-1-2.1-2.1-3.3-3c-5.3-4.1-10.9-7.6-17.3-9.9c-6-2.1-12.2-3.2-18.5-3.6l3.1,32.4c-2.7,0.3-5.4,0.6-8.2,0.6
			c-4.1,0-8.1-0.5-12.1-1.2c1.8,0.3,3.5,0.5,5.3,0.7l3.9-32.6c-6.8,0.2-13.7,1.3-20.2,3.6c-2.6,0.9-5.2,2.1-7.6,3.5
			c-4.3,2.5-8.2,5.5-11.9,8.7c-0.4,0.4-0.7,0.8-1.1,1.2c-13.3-11.3-21.4-27-22.5-44.2l-0.1-1c-0.1-1-0.1-1.9-0.1-2.9
			c0-35.4,29.8-64.2,66.4-64.2s66.3,28.8,66.3,64.2C383.5,507.6,383.4,508.6,383.4,509.5z M354.4,497.6c0,20.2-16.4,36.5-36.6,36.5
			s-36.6-16.3-36.6-36.5s16.4-36.5,36.6-36.5C338,461,354.4,477.4,354.4,497.6z M483.1,248.2c-49.4,0-89.6,38.9-89.6,86.6
			c0,1.1,0.1,2.2,0.1,3.3l0.1,1.2c2.4,46.1,41.7,82.2,89.4,82.2c47.7,0,86.9-36.1,89.3-82.1l0.1-1.2c0.1-1.1,0.1-2.2,0.1-3.3
			C572.7,287,532.5,248.2,483.1,248.2z M491.3,398.4c1.2-0.1,2.5-0.4,3.7-0.6C493.8,398,492.6,398.2,491.3,398.4z M549.3,337.7
			l-0.1,1c-1.1,17.9-9.9,34.4-24.2,45.7c0.8-0.6,1.5-1.3,2.2-1.9c-1.1-1-2.1-2.1-3.3-3c-5.3-4.1-10.9-7.6-17.3-9.9
			c-6-2.1-12.2-3.2-18.5-3.6l3.1,32.4c-2.7,0.3-5.4,0.6-8.2,0.6c-4.1,0-8.1-0.5-12.1-1.2c1.8,0.3,3.5,0.5,5.3,0.7l3.9-32.6
			c-6.8,0.2-13.7,1.3-20.2,3.6c-2.6,0.9-5.2,2.1-7.6,3.5c-4.3,2.5-8.2,5.5-11.9,8.7c-0.4,0.4-0.7,0.8-1.1,1.2
			c-13.3-11.3-21.4-27-22.5-44.2l-0.1-1c-0.1-1-0.1-1.9-0.1-2.9c0-35.4,29.8-64.1,66.4-64.1s66.3,28.8,66.3,64.1
			C549.4,335.8,549.4,336.7,549.3,337.7z M520.3,325.7c0,20.2-16.4,36.5-36.6,36.5s-36.6-16.3-36.6-36.5s16.4-36.5,36.6-36.5
			S520.3,305.5,520.3,325.7z M474.5,512c-3.8-4.1-10.3-4.5-14.6-0.9l-35.6,30.5l35.2,34c2,2,4.6,2.9,7.3,2.9c2.6,0,5.3-1,7.3-2.9
			c4-3.9,4-10.2,0-14.1l-8.2-7.9h80.2V452c0-5.5-4.6-10-10.3-10s-10.3,4.5-10.3,10v81.6h-60.6l8.8-7.5
			C477.9,522.4,478.3,516.1,474.5,512z M327.4,323.3c2.1,2.2,4.9,3.4,7.7,3.4c2.4,0,4.9-0.8,6.9-2.5l35.6-30.5l-35.2-34
			c-4-3.9-10.6-3.9-14.6,0s-4,10.2,0,14.1l8.2,7.9h-80.2v101.5c0,5.5,4.6,10,10.3,10s10.3-4.5,10.3-10v-81.6H337l-8.8,7.5
			C324,312.9,323.6,319.2,327.4,323.3z"/>
	</g>
</g>
</svg>
