<?xml version="1.0" encoding="utf-8"?>
<!-- Generator: Adobe Illustrator 19.0.0, SVG Export Plug-In . SVG Version: 6.00 Build 0)  -->
<svg version="1.1" id="Capa_1" xmlns="http://www.w3.org/2000/svg" xmlns:xlink="http://www.w3.org/1999/xlink" x="0px" y="0px"
	 viewBox="-49 363.6 496 114.3" style="enable-background:new -49 363.6 496 114.3;" xml:space="preserve">
<style type="text/css">
	.st0{fill:#211915;}
	.st1{fill:#FB4F14;}
</style>
<g>
	<path class="st0" d="M62.6,421.1h0.3l-0.3-0.3h-18l11.8,11.1c-1.3,0.3-2.7,0.4-4.1,0.4c-11.9,0-21.5-9.6-21.5-21.5
		c0-11.9,9.6-21.5,21.5-21.5s21.5,9.6,21.5,21.5c0,3.7-0.9,7.1-2.6,10.1H85c1-3.2,1.5-6.6,1.5-10.1c0-18.9-15.3-34.2-34.2-34.2
		s-34.2,15.3-34.2,34.2c0,18.9,15.3,34.2,34.2,34.2c5.2,0,10.1-1.2,14.5-3.3l6.9,6.5h18l-10.8-10.3L62.6,421.1z"/>
</g>
<path class="st0" d="M-14,404.9c-9.9-2.2-14.5-4.2-14.5-8.9c0-4.1,3.7-7.1,10.4-7.1c6.2,0,14.3,2,20,4.4l5.4-10.6
	c-6.4-2.8-15.2-5.3-25.2-5.3c-14.9,0-24.1,8.2-24.1,19.8c0,13,10.9,16.8,24.4,19.9c9.6,2.2,14,4.2,14,8.7c0,4.8-4.3,7.5-11.5,7.5
	c-8.2,0-14.3-0.8-22.9-5l-4.9,10.2c10.4,5.2,16.1,6.2,27.3,6.2c15.3,0,25.4-7.4,25.4-20.1C9.9,412.6,0.2,408.1-14,404.9z"/>
<path class="st0" d="M144,414.1c0,12.3-5.5,18.3-16.1,18.3c-10.4,0-15.9-5.9-15.9-18.3v-35.9H99v39.3c0,15.2,10,27.1,29,27.1
	s29-12,29-27.1v-39.3h-13V414.1z"/>
<path class="st0" d="M266.4,378.2h-26v65.7h28.1c17.2,0,30.9-15.4,30.9-32.8C299.4,392.9,284.6,378.2,266.4,378.2z M267.4,431.7
	h-14.1v-41.3h13c11,0,19.9,9.3,19.9,20.7C286.3,422.1,277.8,431.7,267.4,431.7z"/>
<polygon class="st1" points="160.8,443.9 175.3,443.9 195.8,405.5 216.5,443.9 231,443.9 195.8,378 "/>
<path class="st0" d="M364.9,404.8c0.1-1,0.1-2,0.1-3c0-12.3-6.5-23.7-25.7-23.7h-29v65.7h13.3V427h12.2c0.8,0,1.8,0,2.5-0.1l12.7,17
	h16l-15.1-19.3C360.8,420.9,364.4,413.2,364.9,404.8z M351,402c0,6.7-3.5,12.9-13.5,13.1h-13.9v-25.4h13.5
	C347.1,389.7,350.7,395.6,351,402L351,402z"/>
<g>
	<path class="st0" d="M242.2,465.5H240v-10.8h2.2V465.5z"/>
	<path class="st0" d="M266.4,454.7v10.8h-1.1l-6.4-6.8v6.8h-2.2v-10.8h1.1l6.4,6.8v-6.8H266.4z"/>
	<path class="st0" d="M289.4,456.6H286v8.9h-2.2v-8.9h-3.4v-1.9h9.1v1.9H289.4z"/>
	<path class="st0" d="M311.5,463.6v1.9h-8.3v-10.8h8v1.9h-5.8v2.7h4.9v1.8h-4.9v2.4h6.1V463.6z"/>
	<path class="st0" d="M330.1,462.7c-0.1,0-0.3,0-0.4,0h-2v2.8h-2.2v-10.8h4.8c3.2,0,4.2,1.9,4.2,3.9c0,1.9-0.8,3.1-2.2,3.7l2.5,3.2
		h-2.6L330.1,462.7z M327.7,460.9h1.9c1.7,0,2.6-0.9,2.6-2.2c0-1.1-0.6-2.2-2.3-2.2h-2.2V460.9z"/>
	<path class="st0" d="M350.8,465.5h-2.2v-10.8h2.2V465.5z"/>
	<path class="st0" d="M376.3,460.1c0,3-2.6,5.5-5.7,5.5c-3.2,0-5.7-2.5-5.7-5.5s2.6-5.5,5.7-5.5C373.8,454.6,376.3,457,376.3,460.1z
		 M374.1,460.1c0-1.9-1.6-3.5-3.5-3.5s-3.5,1.6-3.5,3.5c0,1.9,1.6,3.5,3.5,3.5C372.5,463.5,374.1,462,374.1,460.1z"/>
	<path class="st0" d="M395,462.7c-0.1,0-0.3,0-0.4,0h-2v2.8h-2.2v-10.8h4.8c3.2,0,4.2,1.9,4.2,3.9c0,1.9-0.8,3.1-2.2,3.7l2.5,3.2
		h-2.6L395,462.7z M392.6,460.9h1.9c1.7,0,2.6-0.9,2.6-2.2c0-1.1-0.6-2.2-2.3-2.2h-2.2V460.9z"/>
	<path class="st0" d="M421.7,463.6v1.9h-8.3v-10.8h8v1.9h-5.8v2.7h4.9v1.8h-4.9v2.4h6.1V463.6z"/>
	<path class="st0" d="M443.8,462.3c0,2.1-1.7,3.3-4.2,3.3c-1.8,0-2.8-0.2-4.5-1l0.8-1.7c1.4,0.7,2.4,0.8,3.8,0.8
		c1.2,0,1.9-0.4,1.9-1.2c0-0.7-0.7-1.1-2.3-1.4c-2.2-0.5-4-1.1-4-3.3c0-1.9,1.5-3.2,4-3.2c1.6,0,3.1,0.4,4.1,0.9l-0.9,1.7
		c-0.9-0.4-2.3-0.7-3.3-0.7c-1.1,0-1.7,0.5-1.7,1.2c0,0.8,0.8,1.1,2.4,1.5C442.2,459.6,443.8,460.3,443.8,462.3z"/>
</g>
<path class="st0" d="M423.1,430.5h-29.4l-5.9,13.3h-14.1l31.3-65.7h6.6l31.4,65.7h-14L423.1,430.5z M398.5,419.4h19.9l-10-21.7
	L398.5,419.4z"/>
</svg>
