<svg xmlns="http://www.w3.org/2000/svg" xmlns:xlink="http://www.w3.org/1999/xlink" version="1.1" x="0px" y="0px" viewBox="0 0 800 1280" xml:space="preserve" class="style0"><style>.style0{enable-background:	new 0 0 800 1280;}</style><style type="text/css">.st0{fill:#333333;}.st1{fill:#FB4F14;}.st2{fill:#1F1E21;}</style><g><path class="st0" d="M263.6 431.4h0.3l-0.3-0.3l-18 0l11.8 11.1c-1.3 0.3-2.7 0.4-4.1 0.4c-11.9 0-21.5-9.6-21.5-21.5 c0-11.9 9.6-21.5 21.5-21.5c11.9 0 21.5 9.6 21.5 21.5c0 3.7-0.9 7.1-2.6 10.1l13.8 0c1-3.2 1.5-6.6 1.5-10.1 c0-18.9-15.3-34.2-34.2-34.2c-18.9 0-34.2 15.3-34.2 34.2c0 18.9 15.3 34.2 34.2 34.2c5.2 0 10.1-1.2 14.5-3.3l6.9 6.5l18 0 l-10.8-10.3L263.6 431.4z"/></g><path class="st0" d="M187 415.2c-9.9-2.2-14.5-4.2-14.5-8.9c0-4.1 3.7-7.1 10.4-7.1c6.2 0 14.3 2 20 4.4l5.4-10.6 c-6.4-2.8-15.2-5.3-25.2-5.3c-15 0-24.2 8.2-24.2 19.7c0 13 10.9 16.8 24.4 19.9c9.6 2.2 14 4.2 14 8.7c0 4.8-4.3 7.5-11.5 7.5 c-8.2 0-14.3-0.8-22.9-5l-4.8 10.3c10.4 5.2 16.1 6.2 27.3 6.2c15.3 0 25.4-7.4 25.4-20.1C210.9 422.8 201.2 418.3 187 415.2z"/><path class="st0" d="M345 424.3c0 12.3-5.5 18.3-16.1 18.3c-10.4 0-15.9-5.9-15.9-18.3v-35.9h-13v39.3c0 15.2 10 27.1 29 27.1 c19.1 0 29.2-12 29.2-27.1v-39.3h-13V424.3z"/><path class="st0" d="M467.4 388.4h-26v65.7h28.1c17.2 0 30.9-15.4 30.9-32.8C500.4 403.1 485.6 388.4 467.4 388.4z M468.4 441.9 h-14.1v-41.3h13c11 0 19.9 9.3 19.9 20.7C487.3 432.3 478.8 441.9 468.4 441.9z"/><polygon class="st1" points="361.8,454.1 376.3,454.1 396.8,415.7 417.5,454.1 432,454.1 396.8,388.2"/><path class="st0" d="M565.9 415.1c0.1-1 0.1-2 0.1-3c0-12.3-6.5-23.7-25.7-23.7h-29v65.7h13.3v-16.9h12.2c0.8 0 1.8 0 2.5-0.1 l12.7 17H568l-15.1-19.3C561.8 431.1 565.4 423.5 565.9 415.1z M552 412.3c0 6.7-3.5 12.9-13.5 13.1h-13.9V400h13.5 C548.1 400 551.7 405.8 552 412.3L552 412.3z"/><g><path class="st2" d="M443.2 475.7H441v-10.8h2.2V475.7z"/><path class="st2" d="M467.4 464.9v10.8h-1.1l-6.4-6.8v6.8h-2.2v-10.8h1.1l6.4 6.8v-6.8H467.4z"/><path class="st2" d="M490.4 466.8H487v8.9h-2.2v-8.9h-3.4v-1.9h9.1V466.8z"/><path class="st2" d="M512.5 473.8v1.9h-8.3v-10.8h8v1.9h-5.8v2.7h4.9v1.8h-4.9v2.4H512.5z"/><path class="st2" d="M531.1 472.9c-0.1 0-0.3 0-0.4 0h-2v2.8h-2.2v-10.8h4.8c3.2 0 4.2 1.9 4.2 3.9c0 1.9-0.8 3.1-2.2 3.7l2.5 3.2 h-2.6L531.1 472.9z M528.7 471.1h1.9c1.7 0 2.6-0.9 2.6-2.2c0-1.1-0.6-2.2-2.3-2.2h-2.2V471.1z"/><path class="st2" d="M551.8 475.7h-2.2v-10.8h2.2V475.7z"/><path class="st2" d="M577.3 470.3c0 3-2.6 5.5-5.7 5.5c-3.2 0-5.7-2.5-5.7-5.5c0-3 2.6-5.5 5.7-5.5 C574.8 464.8 577.3 467.3 577.3 470.3z M575.1 470.3c0-1.9-1.6-3.5-3.5-3.5c-1.9 0-3.5 1.6-3.5 3.5c0 1.9 1.6 3.5 3.5 3.5 C573.5 473.8 575.1 472.2 575.1 470.3z"/><path class="st2" d="M596 472.9c-0.1 0-0.3 0-0.4 0h-2v2.8h-2.2v-10.8h4.8c3.2 0 4.2 1.9 4.2 3.9c0 1.9-0.8 3.1-2.2 3.7l2.5 3.2 h-2.6L596 472.9z M593.6 471.1h1.9c1.7 0 2.6-0.9 2.6-2.2c0-1.1-0.6-2.2-2.3-2.2h-2.2V471.1z"/><path class="st2" d="M622.7 473.8v1.9h-8.3v-10.8h8v1.9h-5.8v2.7h4.9v1.8h-4.9v2.4H622.7z"/><path class="st2" d="M644.8 472.5c0 2.1-1.7 3.3-4.2 3.3c-1.8 0-2.8-0.2-4.5-1l0.8-1.7c1.4 0.7 2.4 0.8 3.8 0.8 c1.2 0 1.9-0.4 1.9-1.2c0-0.7-0.7-1.1-2.3-1.4c-2.2-0.5-4-1.1-4-3.3c0-1.9 1.5-3.2 4-3.2c1.6 0 3.1 0.4 4.1 0.9l-0.9 1.7 c-0.9-0.4-2.3-0.7-3.3-0.7c-1.1 0-1.7 0.5-1.7 1.2c0 0.8 0.8 1.1 2.4 1.5C643.2 469.8 644.8 470.6 644.8 472.5z"/></g><path class="st0" d="M624.1 440.8h-29.4l-5.9 13.3h-14.1l31.3-65.7h6.6l31.4 65.7H630L624.1 440.8z M599.5 429.7h19.9l-10-21.7 L599.5 429.7z"/></svg>