<?xml version="1.0" encoding="utf-8"?>
<!-- Generator: Adobe Illustrator 19.0.0, SVG Export Plug-In . SVG Version: 6.00 Build 0)  -->
<svg version="1.1" id="Capa_1" xmlns="http://www.w3.org/2000/svg" xmlns:xlink="http://www.w3.org/1999/xlink" x="0px" y="0px"
	 viewBox="0 0 496 114.3" style="enable-background:new 0 0 496 114.3;" xml:space="preserve">
<style type="text/css">
	.st0{fill:#333333;}
	.st1{fill:#FB4F14;}
	.st2{fill:#1F1E21;}
</style>
<g>
	<path class="st0" d="M111.6,57.5h0.3l-0.3-0.3l-18,0l11.8,11.1c-1.3,0.3-2.7,0.4-4.1,0.4c-11.9,0-21.5-9.6-21.5-21.5
		c0-11.9,9.6-21.5,21.5-21.5c11.9,0,21.5,9.6,21.5,21.5c0,3.7-0.9,7.1-2.6,10.1l13.8,0c1-3.2,1.5-6.6,1.5-10.1
		c0-18.9-15.3-34.2-34.2-34.2c-18.9,0-34.2,15.3-34.2,34.2c0,18.9,15.3,34.2,34.2,34.2c5.2,0,10.1-1.2,14.5-3.3l6.9,6.5l18,0
		l-10.8-10.3L111.6,57.5z"/>
</g>
<path class="st0" d="M35,41.3c-9.9-2.2-14.5-4.2-14.5-8.9c0-4.1,3.7-7.1,10.4-7.1c6.2,0,14.3,2,20,4.4l5.4-10.6
	c-6.4-2.8-15.2-5.3-25.2-5.3C16.2,13.8,7,22,7,33.6c0,13,10.9,16.8,24.4,19.9c9.6,2.2,14,4.2,14,8.7c0,4.8-4.3,7.5-11.5,7.5
	c-8.2,0-14.3-0.8-22.9-5L6.1,74.9c10.4,5.2,16.1,6.2,27.3,6.2c15.3,0,25.4-7.4,25.4-20.1C58.9,49,49.2,44.5,35,41.3z"/>
<path class="st0" d="M193,50.5c0,12.3-5.5,18.3-16.1,18.3c-10.4,0-15.9-5.9-15.9-18.3V14.6h-13v39.3c0,15.2,10,27.1,29,27.1
	C196,81,206,69,206,53.9V14.6h-13V50.5z"/>
<path class="st0" d="M315.4,14.6h-26v65.7h28.1c17.2,0,30.9-15.4,30.9-32.8C348.4,29.3,333.6,14.6,315.4,14.6z M316.4,68.1h-14.1
	V26.8h13c11,0,19.9,9.3,19.9,20.7C335.3,58.5,326.8,68.1,316.4,68.1z"/>
<polygon class="st1" points="209.8,80.3 224.3,80.3 244.8,41.9 265.5,80.3 280,80.3 244.8,14.4 "/>
<path class="st0" d="M413.9,41.2c0.1-1,0.1-2,0.1-3c0-12.3-6.5-23.7-25.7-23.7h-29v65.7h13.3V63.4h12.2c0.8,0,1.8,0,2.5-0.1l12.7,17
	H416l-15.1-19.3C409.8,57.3,413.4,49.6,413.9,41.2z M400,38.4c0,6.7-3.5,12.9-13.5,13.1h-13.9V26.1h13.5
	C396.1,26.1,399.7,32,400,38.4L400,38.4z"/>
<g>
	<path class="st2" d="M291.2,101.9H289V91.1h2.2V101.9z"/>
	<path class="st2" d="M315.4,91.1v10.8h-1.1l-6.4-6.8v6.8h-2.2V91.1h1.1l6.4,6.8v-6.8H315.4z"/>
	<path class="st2" d="M338.4,93H335v8.9h-2.2V93h-3.4v-1.9h9.1V93z"/>
	<path class="st2" d="M360.5,100v1.9h-8.3V91.1h8V93h-5.8v2.7h4.9v1.8h-4.9v2.4H360.5z"/>
	<path class="st2" d="M379.1,99.1c-0.1,0-0.3,0-0.4,0h-2v2.8h-2.2V91.1h4.8c3.2,0,4.2,1.9,4.2,3.9c0,1.9-0.8,3.1-2.2,3.7l2.5,3.2
		h-2.6L379.1,99.1z M376.7,97.3h1.9c1.7,0,2.6-0.9,2.6-2.2c0-1.1-0.6-2.2-2.3-2.2h-2.2V97.3z"/>
	<path class="st2" d="M399.8,101.9h-2.2V91.1h2.2V101.9z"/>
	<path class="st2" d="M425.3,96.5c0,3-2.6,5.5-5.7,5.5c-3.2,0-5.7-2.5-5.7-5.5c0-3,2.6-5.5,5.7-5.5C422.8,91,425.3,93.4,425.3,96.5z
		 M423.1,96.5c0-1.9-1.6-3.5-3.5-3.5c-1.9,0-3.5,1.6-3.5,3.5c0,1.9,1.6,3.5,3.5,3.5C421.5,99.9,423.1,98.4,423.1,96.5z"/>
	<path class="st2" d="M444,99.1c-0.1,0-0.3,0-0.4,0h-2v2.8h-2.2V91.1h4.8c3.2,0,4.2,1.9,4.2,3.9c0,1.9-0.8,3.1-2.2,3.7l2.5,3.2h-2.6
		L444,99.1z M441.6,97.3h1.9c1.7,0,2.6-0.9,2.6-2.2c0-1.1-0.6-2.2-2.3-2.2h-2.2V97.3z"/>
	<path class="st2" d="M470.7,100v1.9h-8.3V91.1h8V93h-5.8v2.7h4.9v1.8h-4.9v2.4H470.7z"/>
	<path class="st2" d="M492.8,98.7c0,2.1-1.7,3.3-4.2,3.3c-1.8,0-2.8-0.2-4.5-1l0.8-1.7c1.4,0.7,2.4,0.8,3.8,0.8
		c1.2,0,1.9-0.4,1.9-1.2c0-0.7-0.7-1.1-2.3-1.4c-2.2-0.5-4-1.1-4-3.3c0-1.9,1.5-3.2,4-3.2c1.6,0,3.1,0.4,4.1,0.9l-0.9,1.7
		c-0.9-0.4-2.3-0.7-3.3-0.7c-1.1,0-1.7,0.5-1.7,1.2c0,0.8,0.8,1.1,2.4,1.5C491.2,96,492.8,96.7,492.8,98.7z"/>
</g>
<path class="st0" d="M472.1,66.9h-29.4l-5.9,13.3h-14.1l31.3-65.7h6.6l31.4,65.7H478L472.1,66.9z M447.5,55.8h19.9l-10-21.7
	L447.5,55.8z"/>
</svg>
