<?xml version="1.0" encoding="UTF-8" standalone="no"?>
<svg xmlns="http://www.w3.org/2000/svg" xml:space="preserve" class="style0" version="1.1" y="0px" x="0px" xmlns:xlink="http://www.w3.org/1999/xlink" viewBox="0 0 800 1280"><style>.style0{enable-background:	new 0 0 800 1280;}</style><style type="text/css">.st0{fill:#333333;}.st1{fill:#FB4F14;}.st2{fill:#1F1E21;}</style><path class="st0" d="m263.6 431.4h0.3l-0.3-0.3h-18l11.8 11.1c-1.3 0.3-2.7 0.4-4.1 0.4-11.9 0-21.5-9.6-21.5-21.5s9.6-21.5 21.5-21.5 21.5 9.6 21.5 21.5c0 3.7-0.9 7.1-2.6 10.1h13.8c1-3.2 1.5-6.6 1.5-10.1 0-18.9-15.3-34.2-34.2-34.2s-34.2 15.3-34.2 34.2 15.3 34.2 34.2 34.2c5.2 0 10.1-1.2 14.5-3.3l6.9 6.5h18l-10.8-10.3-18.3-16.8z"/><path class="st0" d="m187 415.2c-9.9-2.2-14.5-4.2-14.5-8.9 0-4.1 3.7-7.1 10.4-7.1 6.2 0 14.3 2 20 4.4l5.4-10.6c-6.4-2.8-15.2-5.3-25.2-5.3-15 0-24.2 8.2-24.2 19.7 0 13 10.9 16.8 24.4 19.9 9.6 2.2 14 4.2 14 8.7 0 4.8-4.3 7.5-11.5 7.5-8.2 0-14.3-0.8-22.9-5l-4.8 10.3c10.4 5.2 16.1 6.2 27.3 6.2 15.3 0 25.4-7.4 25.4-20.1 0.1-12.1-9.6-16.6-23.8-19.7z"/><path class="st0" d="m345 424.3c0 12.3-5.5 18.3-16.1 18.3-10.4 0-15.9-5.9-15.9-18.3v-35.9h-13v39.3c0 15.2 10 27.1 29 27.1 19.1 0 29.2-12 29.2-27.1v-39.3h-13v35.9z"/><path class="st0" d="m467.4 388.4h-26v65.7h28.1c17.2 0 30.9-15.4 30.9-32.8 0-18.2-14.8-32.9-33-32.9zm1 53.5h-14.1v-41.3h13c11 0 19.9 9.3 19.9 20.7 0.1 11-8.4 20.6-18.8 20.6z"/><polygon points="361.8 454.1 376.3 454.1 396.8 415.7 417.5 454.1 432 454.1 396.8 388.2" class="st1"/><path class="st0" d="m565.9 415.1c0.1-1 0.1-2 0.1-3 0-12.3-6.5-23.7-25.7-23.7h-29v65.7h13.3v-16.9h12.2c0.8 0 1.8 0 2.5-0.1l12.7 17h16l-15.1-19.3c8.9-3.7 12.5-11.3 13-19.7zm-13.9-2.8c0 6.7-3.5 12.9-13.5 13.1h-13.9v-25.4h13.5c10 0 13.6 5.8 13.9 12.3z"/><path class="st2" d="m443.2 475.7h-2.2v-10.8h2.2v10.8z"/><path class="st2" d="m467.4 464.9v10.8h-1.1l-6.4-6.8v6.8h-2.2v-10.8h1.1l6.4 6.8v-6.8h2.2z"/><path class="st2" d="m490.4 466.8h-3.4v8.9h-2.2v-8.9h-3.4v-1.9h9.1v1.9z"/><path class="st2" d="m512.5 473.8v1.9h-8.3v-10.8h8v1.9h-5.8v2.7h4.9v1.8h-4.9v2.4h6.1z"/><path class="st2" d="m531.1 472.9h-0.4-2v2.8h-2.2v-10.8h4.8c3.2 0 4.2 1.9 4.2 3.9 0 1.9-0.8 3.1-2.2 3.7l2.5 3.2h-2.6l-2.1-2.8zm-2.4-1.8h1.9c1.7 0 2.6-0.9 2.6-2.2 0-1.1-0.6-2.2-2.3-2.2h-2.2v4.4z"/><path class="st2" d="m551.8 475.7h-2.2v-10.8h2.2v10.8z"/><path class="st2" d="m577.3 470.3c0 3-2.6 5.5-5.7 5.5-3.2 0-5.7-2.5-5.7-5.5s2.6-5.5 5.7-5.5c3.2 0 5.7 2.5 5.7 5.5zm-2.2 0c0-1.9-1.6-3.5-3.5-3.5s-3.5 1.6-3.5 3.5 1.6 3.5 3.5 3.5 3.5-1.6 3.5-3.5z"/><path class="st2" d="m596 472.9h-0.4-2v2.8h-2.2v-10.8h4.8c3.2 0 4.2 1.9 4.2 3.9 0 1.9-0.8 3.1-2.2 3.7l2.5 3.2h-2.6l-2.1-2.8zm-2.4-1.8h1.9c1.7 0 2.6-0.9 2.6-2.2 0-1.1-0.6-2.2-2.3-2.2h-2.2v4.4z"/><path class="st2" d="m622.7 473.8v1.9h-8.3v-10.8h8v1.9h-5.8v2.7h4.9v1.8h-4.9v2.4h6.1z"/><path class="st2" d="m644.8 472.5c0 2.1-1.7 3.3-4.2 3.3-1.8 0-2.8-0.2-4.5-1l0.8-1.7c1.4 0.7 2.4 0.8 3.8 0.8 1.2 0 1.9-0.4 1.9-1.2 0-0.7-0.7-1.1-2.3-1.4-2.2-0.5-4-1.1-4-3.3 0-1.9 1.5-3.2 4-3.2 1.6 0 3.1 0.4 4.1 0.9l-0.9 1.7c-0.9-0.4-2.3-0.7-3.3-0.7-1.1 0-1.7 0.5-1.7 1.2 0 0.8 0.8 1.1 2.4 1.5 2.3 0.4 3.9 1.2 3.9 3.1z"/><path class="st0" d="m624.1 440.8h-29.4l-5.9 13.3h-14.1l31.3-65.7h6.6l31.4 65.7h-14l-5.9-13.3zm-24.6-11.1h19.9l-10-21.7-9.9 21.7z"/></svg>
