<?xml version="1.0" encoding="utf-8"?>
<!-- Generator: Adobe Illustrator 19.0.0, SVG Export Plug-In . SVG Version: 6.00 Build 0)  -->
<svg version="1.1" id="Wall_Clock" xmlns="http://www.w3.org/2000/svg" xmlns:xlink="http://www.w3.org/1999/xlink" x="0px" y="0px"
	 viewBox="51 71.6 698.3 698.3" style="enable-background:new 51 71.6 698.3 698.3;" xml:space="preserve">
<style type="text/css">
	.st0{fill:#222528;stroke:#FFFFFF;stroke-miterlimit:10;}
	.st1{fill:#FFFFFF;}
</style>
<g>
	<path class="st0" d="M400.1,769.9L400.1,769.9C207.3,769.9,51,613.5,51,420.7l0,0C51,227.9,207.3,71.6,400.1,71.6l0,0
		c192.8,0,349.1,156.3,349.1,349.1l0,0C749.3,613.5,592.9,769.9,400.1,769.9z"/>
	<g>
		<g>
			<path class="st1" d="M400.1,260.7c-88.4,0-160.1,71.7-160.1,160.1s71.7,160.1,160.1,160.1s160.1-71.7,160.1-160.1
				C560.2,332.3,488.6,260.7,400.1,260.7z M505.9,502.3l-14.5-11.9c-0.6-0.5-1.5-0.4-2,0.2s-0.4,1.5,0.2,1.9l14.6,12
				c-5.8,7.2-12.4,13.9-19.5,19.7l-11.8-15.1c-0.5-0.6-1.3-0.7-2-0.2c-0.6,0.5-0.7,1.4-0.2,2l11.8,15.1c-6.8,5.3-14.1,10-21.9,13.9
				l-8.8-16.7c-0.4-0.7-1.2-0.9-1.9-0.6c-0.7,0.3-0.9,1.2-0.6,1.9l8.8,16.7c-8.5,4.1-17.4,7.4-26.8,9.6l-3.6-20
				c-0.1-0.8-0.9-1.2-1.6-1.1c-0.8,0.2-1.3,0.9-1.1,1.6l3.6,20.1c-7.1,1.5-14.3,2.6-21.7,3v-23.9c0-3.7-3-6.8-6.8-6.8
				s-6.8,3.1-6.8,6.8v23.9c-6.2-0.3-12.2-1.2-18.2-2.3l3-16.8c0.1-0.8-0.4-1.5-1.1-1.6c-0.7-0.1-1.5,0.4-1.6,1.1l-3,16.8
				c-9.1-1.9-17.9-4.7-26.3-8.4l7.7-14.7c0.4-0.7,0.1-1.5-0.6-1.9c-0.7-0.3-1.5-0.1-1.9,0.6l-7.8,14.8c-7.8-3.6-15.2-8-22.1-13
				l10.9-14c0.5-0.6,0.4-1.5-0.2-2s-1.5-0.4-2,0.2l-10.9,14c-7.3-5.6-14.1-11.9-20.2-18.8l14.4-11.8c0.6-0.5,0.7-1.4,0.2-2
				s-1.4-0.7-2-0.2l-14.5,11.9c-5.9-7-10.9-14.8-15.2-22.9l16.9-8.9c0.7-0.4,0.9-1.2,0.6-1.9c-0.4-0.7-1.2-0.9-1.9-0.6l-16.9,8.9
				c-4.5-8.9-8.1-18.3-10.6-28.2l19.6-3.7c0.8-0.1,1.2-0.9,1.1-1.6c-0.1-0.8-0.9-1.2-1.6-1.1l-19.6,3.7c-1.6-7.2-2.7-14.7-3.1-22.3
				h22.8c3.8,0,6.8-3,6.8-6.8s-3-6.8-6.8-6.8h-22.8c0.4-7.3,1.4-14.5,3-21.5c0.1,0,0.1,0.1,0.2,0.1l21.8,4.1c0.1,0,0.2,0,0.3,0
				c0.7,0,1.2-0.5,1.4-1.1c0.1-0.8-0.4-1.5-1.1-1.6l-21.9-4.1c-0.1,0-0.2,0-0.2,0c2.4-10.2,6.1-20,10.7-29.1l19.3,10.1
				c0.2,0.1,0.4,0.2,0.6,0.2c0.5,0,1-0.3,1.2-0.7c0.4-0.7,0.1-1.5-0.6-1.9L282,358.3c4.4-8.3,9.6-16.2,15.6-23.4l16.5,13.6
				c0.3,0.2,0.6,0.3,0.9,0.3c0.4,0,0.8-0.2,1.1-0.5c0.5-0.6,0.4-1.5-0.2-2l-16.4-13.5c6.2-7.1,13.1-13.5,20.7-19.1l12.5,16
				c0.3,0.4,0.7,0.5,1.1,0.5c0.3,0,0.6-0.1,0.8-0.3c0.6-0.5,0.7-1.3,0.2-1.9l-12.5-15.9c7-5.1,14.5-9.5,22.5-13.1l8.9,16.8
				c0.3,0.5,0.7,0.8,1.2,0.8c0.2,0,0.4-0.1,0.7-0.2c0.7-0.3,0.9-1.2,0.6-1.9l-8.7-16.5c8.6-3.7,17.6-6.4,27-8.3l3.3,18.5
				c0.1,0.7,0.7,1.1,1.4,1.1c0.1,0,0.2,0,0.3,0c0.8-0.1,1.3-0.9,1.1-1.6l-3.3-18.6c5.3-0.9,10.8-1.6,16.3-1.9c0,0.1-0.1,0.2-0.1,0.3
				v24.9c0,3.8,3.1,6.8,6.8,6.8s6.8-3,6.8-6.8v-24.9c0-0.1,0-0.2,0-0.3c7.5,0.4,14.8,1.5,22,3l-3.8,21.2c-0.1,0.8,0.4,1.5,1.1,1.6
				c0.1,0,0.2,0,0.2,0c0.7,0,1.3-0.5,1.4-1.1l3.8-21.1c9.5,2.3,18.5,5.7,27,9.8l-9.3,17.6c-0.4,0.7-0.1,1.5,0.6,1.9
				c0.2,0.1,0.4,0.2,0.6,0.2c0.5,0,1-0.3,1.2-0.8l9.3-17.6c7.8,4,15.1,8.7,21.9,14.1l-12.3,15.8c-0.5,0.6-0.4,1.5,0.2,1.9
				c0.3,0.2,0.6,0.3,0.9,0.3c0.4,0,0.8-0.2,1.1-0.5l12.4-15.8c7.2,5.9,13.7,12.7,19.5,20l-15.1,12.4c-0.6,0.5-0.7,1.4-0.2,2
				c0.3,0.4,0.7,0.5,1.1,0.5c0.3,0,0.6-0.1,0.9-0.3l15-12.4c5.6,7.3,10.4,15.2,14.4,23.5l-16.7,8.8c-0.7,0.3-0.9,1.2-0.6,1.9
				c0.2,0.5,0.7,0.8,1.2,0.8c0.2,0,0.4-0.1,0.6-0.2l16.6-8.7c4.1,9,7,18.5,9,28.4l-17.7,3.3c-0.8,0.1-1.2,0.9-1.1,1.6
				s0.7,1.1,1.4,1.1c0.1,0,0.2,0,0.3,0l17.7-3.3c1,5.5,1.8,11.1,2.1,16.9h-23c-3.7,0-6.8,3-6.8,6.8s3,6.8,6.8,6.8h23
				c-0.3,6.1-1.2,12.1-2.3,18l-17.5-3.3c-0.7-0.1-1.5,0.4-1.6,1.1c-0.1,0.7,0.4,1.5,1.1,1.6l17.5,3.3c-2.1,9.9-5.1,19.3-9.2,28.3
				l-16.2-8.5c-0.7-0.4-1.5-0.1-1.9,0.6s-0.1,1.5,0.6,1.9l16.2,8.5C516.4,487.3,511.5,495.1,505.9,502.3z"/>
			<path class="st1" d="M487.4,413.9h-76.2c-2.3-3.8-6.3-6.4-11.1-6.4c-1.5,0-3,0.4-4.4,0.9L343,355.7c-2.7-2.7-7-2.7-9.6,0
				c-2.7,2.7-2.7,7,0,9.6l53.8,53.8c-0.1,0.6-0.3,1.1-0.3,1.6c0,4.1,1.9,7.7,4.9,10.2l-37.5,66.5l3.9,2.2l37.5-66.5
				c1.4,0.5,2.8,0.8,4.4,0.8c4.8,0,8.7-2.6,11.1-6.4h76.2c3.7,0,6.8-3,6.8-6.8C494.2,417,491.1,413.9,487.4,413.9z"/>
		</g>
	</g>
</g>
</svg>
